<?xml version="1.0" encoding="utf-8"?>
<!-- Generator: Adobe Illustrator 27.5.0, SVG Export Plug-In . SVG Version: 6.00 Build 0)  -->
<svg version="1.1" id="Capa_1" xmlns="http://www.w3.org/2000/svg" xmlns:xlink="http://www.w3.org/1999/xlink" x="0px" y="0px"
	 viewBox="0 0 2122 2122" style="enable-background:new 0 0 2122 2122;" xml:space="preserve">
<path style="fill:#F59F22;" d="M710.432,928.179c-40.482-143.583-157.656-253.12-278.793-333.161
	c19.518,54.251,20.083,115.116,1.576,169.717c-25.837,76.221-86.728,138.782-101.907,217.817
	c-14.551,75.771,15.717,152.879,53.013,220.421c25.2,45.637,53.91,89.33,85.764,130.596c9.422-28.476,17.772-59.566,24.789-92.41
	c0.514-2.402,0.959-4.892,1.459-7.312l-59.809-156.374c-1.808-4.724,4.775-7.983,7.437-3.686l62.811,101.427
	c5.268-34.915,9.087-71.027,11.252-107.58L456.389,938.32c-2.197-4.614,4.173-8.429,7.201-4.309l56.408,76.723
	c0.046-4.194,0.171-8.388,0.171-12.58c0.007-80.977-8.658-161.35-27.884-232.106c-1.806-6.648,2.119-13.5,8.767-15.306
	c6.647-1.806,13.5,2.12,15.305,8.767c9.365,34.498,16.183,70.985,20.877,108.503l32.424-64.707c2.383-4.751,9.579-1.959,8.134,3.155
	l-34.828,123.272c1.398,22.666,2.148,45.517,2.15,68.422c-0.001,33.304-1.47,66.651-4.184,99.521l57.16-62.643
	c3.186-3.491,8.67,0.636,6.198,4.663l-69.103,112.583c-4.14,32.361-9.462,63.935-15.916,94.101
	c-4.102,19.135-8.634,37.71-13.571,55.59c17.85-25.497,42.267-47.202,67.099-66.421c39.011-30.192,81.488-57.79,110.032-98.024
	C724.942,1078.161,730.177,998.235,710.432,928.179z"/>
<path d="M535.184,1152.277l69.103-112.583c2.472-4.027-3.011-8.153-6.198-4.663l-57.16,62.643
	c2.714-32.87,4.182-66.216,4.184-99.521c-0.002-22.904-0.752-45.756-2.15-68.422l34.828-123.272
	c1.445-5.113-5.751-7.905-8.134-3.155l-32.424,64.707c-4.693-37.518-11.512-74.005-20.877-108.503
	c-1.805-6.647-8.658-10.573-15.305-8.767c-6.648,1.806-10.573,8.658-8.767,15.306c19.226,70.755,27.891,151.129,27.884,232.106
	c0,4.192-0.125,8.387-0.171,12.58l-56.408-76.723c-3.028-4.119-9.398-0.304-7.201,4.309l61.638,129.314
	c-2.165,36.552-5.984,72.665-11.252,107.58l-62.811-101.427c-2.663-4.297-9.245-1.038-7.437,3.686l59.809,156.374
	c-0.5,2.421-0.945,4.91-1.459,7.312c-7.017,32.844-15.367,63.933-24.789,92.41c-9.932,30.018-21.067,57.079-33.079,80.279
	c-9.436,10.999-18.452,22.431-27.095,34.236c-13.718,15.655-25.588,32.952-35.52,51.357
	c-23.331,43.255-36.202,92.609-37.902,141.577c-0.148,4.256-0.22,8.507-0.219,12.75c0.04,92.987,34.507,182.406,80.05,261.639
	c3.434,5.971,11.059,8.028,17.03,4.594c5.971-3.434,8.028-11.059,4.593-17.031l0,0c-44.284-76.948-76.77-162.524-76.729-249.203
	c0-3.962,0.067-7.925,0.205-11.888c1.547-45.176,13.528-90.975,34.924-130.591c7.104-13.16,15.254-25.61,24.367-37.173
	c1.358-0.854,2.574-1.981,3.555-3.375h0c1.706-2.424,3.481-4.784,5.224-7.174c16.539-18.672,35.891-34.525,57.876-46.481
	c20.366-11.071,40.924-18.565,62.553-23.527c0.552-0.027,1.101-0.034,1.659-0.138h0c25.917-4.814,55.976-7.219,88.858-7.216
	c4.75-0.001,9.575,0.062,14.439,0.161c32.171,0.656,66.733,3.485,102.657,8.409l127.589,108.617
	c3.849,3.279,9.118-1.839,5.954-5.783l-74.725-93.098c34.655,6.669,69.98,15.098,105.136,25.241l101.447,101.311
	c3.617,3.613,9.337-1.123,6.463-5.349l-53.603-78.878c80.686,27.54,158.076,63.923,221.52,107.83
	c5.664,3.919,13.434,2.503,17.353-3.162c3.919-5.665,2.503-13.434-3.162-17.353c-29.379-20.313-61.427-38.948-95.205-55.875
	l71.69-8.978c5.272-0.661,5.04-8.375-0.263-8.719l-127.606-8.255c-42.031-17.857-85.832-33.238-129.9-46.027
	c-9.769-2.832-19.549-5.495-29.326-8.071l78.112-33c4.35-1.839,2.289-8.385-2.329-7.398l-129.151,27.602
	c-52.172-11.273-103.356-18.722-151.09-22.081c0.465-0.129,0.934-0.232,1.398-0.365c-22.718-1.535-44.228-2.552-64.805-2.554
	c-28.804,0.001-55.861,1.973-81.933,7.315c-16.976,3.475-33.518,8.428-49.773,15.126c37.258-34.782,78.886-65.247,123.293-92.554
	c78.332-48.177,165.195-86.461,251.13-121.354c43.403-17.631,87.474-35.063,131.28-53.408c28.115-5.334,60.839-8.04,96.696-8.036
	c0.474,0,0.964,0.014,1.439,0.015c32.185,0.057,66.821,2.278,102.835,6.537l129.538,106.2c3.91,3.206,9.082-2.007,5.844-5.892
	l-76.431-91.691c34.784,6.028,70.265,13.823,105.617,23.316l103.272,99.381c3.681,3.545,9.313-1.296,6.363-5.469l-55.038-77.847
	c81.173,26.039,159.221,60.967,223.461,103.687c5.737,3.813,13.478,2.254,17.292-3.482c3.813-5.737,2.254-13.479-3.482-17.292
	c-29.746-19.764-62.113-37.814-96.193-54.11l71.481-10.299c5.259-0.758,4.884-8.468-0.424-8.711l-127.83-5.895
	c-39.813-16.047-81.133-29.905-122.742-41.447c-12.425-3.443-24.873-6.681-37.312-9.713l77.431-34.417
	c4.317-1.917,2.134-8.423-2.466-7.352l-128.567,29.977c-52.392-10.311-103.72-16.789-151.525-19.265
	c-14.527-0.752-28.762-1.173-42.563-1.175c-7.5,0.001-14.842,0.149-22.096,0.375c17.743-8.118,35.385-16.433,52.792-25.156
	c83.975-42.091,163.35-92.176,230.435-159.201c8.509-8.505,16.8-17.335,24.795-26.467c17.489-19.974,33.411-41.53,46.38-65.027
	c12.034-16.097,23.858-32.824,35.393-50.068l112.028-69.904c4.008-2.502,0.94-8.641-3.466-6.938l-79.086,30.555
	c10.735-17.717,21.126-35.81,31.037-54.221c16.739-31.111,32.163-63.056,45.83-95.322l86.021-94.632
	c3.574-3.931-1.62-9.642-5.871-6.45l-57.811,43.389c12.526-35.653,22.639-71.332,29.645-106.365
	c1.349-6.755-3.032-13.325-9.787-14.675c-6.755-1.35-13.325,3.032-14.675,9.788c-15.095,75.675-45.453,155.626-84.327,231.514
	l-16.282-93.994c-0.875-5.035-8.278-4.465-8.368,0.646l-2.526,143.27c-9.91,17.245-20.161,34.202-30.754,50.691
	c-8.905,13.87-18.031,27.403-27.302,40.604l-10.974-118.869c-0.466-5.035-7.81-5.052-8.3-0.022l-16.246,166.735
	c-13.832,17.598-27.841,34.298-41.879,49.85c-8.701,9.645-17.413,18.838-26.093,27.577c-27.166,27.352-54.009,50.07-79.173,66.721
	c-2.065,1.367-3.568,3.255-4.499,5.364c-39.538,27.261-81.634,51.256-125.323,73.15c-40.136,20.119-81.589,38.466-123.501,56.054
	c-0.902,0.178-1.839,0.331-2.734,0.514c-2.336,0.478-4.355,1.61-5.978,3.128c-41.425,17.257-83.242,33.842-124.668,50.663
	c-27.164,11.034-54.482,22.497-81.689,34.471c4.726-24.83,12.215-51.927,22.263-80.509c4.086-11.62,8.565-23.466,13.456-35.5
	c7.883-19.411,16.804-39.292,26.618-59.406l143.017-87.259c4.317-2.633,1.101-9.238-3.635-7.464l-111.791,41.908
	c17.161-30.835,36.208-61.757,56.823-91.991l127.941-64.726c4.561-2.307,1.849-9.22-3.065-7.812l-91.661,26.277
	c51.36-68.044,110.098-130.194,171.62-176.746c5.492-4.157,6.575-11.98,2.417-17.472c-4.157-5.492-11.98-6.575-17.472-2.418
	c-28.473,21.566-56.187,46.194-82.822,72.995l13.868-70.914c1.018-5.216-6.382-7.406-8.365-2.475l-47.767,118.801
	c-36.734,41.937-70.766,87.502-101.065,134.225l-6.949-84.537c-0.388-4.709-7.25-4.795-7.754-0.098l-14.116,131.229
	c-27.012,46.046-50.07,92.359-68.18,136.656c-0.249,0.61-0.524,1.229-0.771,1.838c-20.094,49.492-33.903,96.317-39.974,137.675
	c-49.96,22.844-99.18,47.831-145.756,76.467c-44.721,27.501-87.042,58.341-125.24,93.707c7.008-19.128,13.493-39.456,19.387-60.807
	c4.937-17.88,9.469-36.454,13.571-55.59C525.722,1216.212,531.044,1184.638,535.184,1152.277z"/>
<path style="fill:#F59F22;" d="M1117.2,1294.941c-59.462-41.973-136.56-63.69-206.567-43.781
	c-47.45,13.496-87.632,44.339-129.104,71.05c-26.02,16.758-54.176,32.356-83.695,40.773c-0.464,0.133-0.933,0.236-1.398,0.365
	c47.734,3.359,98.918,10.808,151.09,22.081l129.151-27.602c4.618-0.987,6.679,5.559,2.329,7.398l-78.112,33
	c9.777,2.575,19.557,5.239,29.326,8.071c44.068,12.788,87.869,28.17,129.9,46.027l127.606,8.255
	c5.303,0.344,5.535,8.058,0.263,8.719l-71.69,8.978c33.777,16.927,65.826,35.562,95.205,55.875
	c5.665,3.919,7.08,11.688,3.162,17.353c-3.918,5.665-11.688,7.081-17.353,3.162c-63.444-43.906-140.834-80.29-221.52-107.83
	l53.603,78.878c2.874,4.226-2.846,8.962-6.463,5.349l-101.447-101.311c-35.156-10.142-70.481-18.572-105.136-25.241l74.725,93.098
	c3.164,3.944-2.105,9.062-5.954,5.783L757.53,1394.775c-35.924-4.924-70.487-7.753-102.657-8.409
	c28.283,43.789,59.901,85.423,94.52,124.395c51.24,57.683,113.844,111.932,190.132,123.476
	c79.573,12.044,158.857-24.502,239.33-23.442c57.649,0.757,114.842,21.585,159.478,58.075
	C1303.265,1527.976,1239.068,1380.982,1117.2,1294.941z"/>
<path style="fill:#F59F22;" d="M864.506,632.065c-58.451,43.374-103.165,109.829-106.119,182.555
	c-2.003,49.289,14.745,97.096,27.164,144.836c7.909,30.405,13.968,62.526,12.5,93.632c18.11-44.296,41.168-90.609,68.18-136.656
	l14.116-131.229c0.504-4.697,7.366-4.611,7.754,0.098l6.949,84.537c30.298-46.724,64.331-92.289,101.065-134.225l47.767-118.801
	c1.983-4.931,9.383-2.74,8.365,2.475l-13.868,70.914c26.635-26.801,54.349-51.429,82.822-72.995
	c5.492-4.157,13.315-3.075,17.472,2.418c4.157,5.492,3.075,13.315-2.417,17.472c-61.522,46.552-120.26,108.703-171.62,176.746
	l91.661-26.277c4.914-1.408,7.625,5.505,3.065,7.812l-127.941,64.726c-20.615,30.234-39.661,61.157-56.823,91.991l111.791-41.908
	c4.736-1.774,7.952,4.831,3.635,7.464l-143.017,87.259c-9.814,20.114-18.735,39.995-26.618,59.406
	c-4.891,12.034-9.371,23.88-13.456,35.5c50.432-13.189,99.859-30.219,147.693-50.93c70.801-30.658,141.893-73.182,176.692-142.044
	c36.297-71.827,26.346-158.562,52.492-234.677c18.728-54.526,56.38-102.35,104.987-133.357
	C1144.001,528.106,984.31,543.173,864.506,632.065z"/>
<path style="fill:#F59F22;" d="M1565.713,1007.558c-60.229-40.865-137.715-61.149-207.342-39.946
	c-47.191,14.372-86.797,45.953-127.766,73.43c-26.108,17.508-54.451,33.834-84.32,42.707c47.805,2.476,99.133,8.954,151.525,19.265
	l128.567-29.977c4.599-1.072,6.782,5.435,2.466,7.352l-77.431,34.417c12.439,3.032,24.887,6.27,37.312,9.713
	c41.609,11.542,82.929,25.399,122.742,41.447l127.83,5.895c5.308,0.243,5.683,7.953,0.424,8.711l-71.481,10.299
	c34.08,16.297,66.447,34.346,96.193,54.11c5.736,3.813,7.296,11.555,3.482,17.292c-3.814,5.736-11.555,7.295-17.292,3.482
	c-64.239-42.72-142.287-77.648-223.461-103.687l55.038,77.847c2.95,4.173-2.682,9.014-6.363,5.469l-103.272-99.381
	c-35.352-9.493-70.833-17.287-105.617-23.316l76.431,91.691c3.237,3.885-1.934,9.099-5.844,5.892l-129.538-106.2
	c-36.014-4.259-70.65-6.48-102.835-6.537c29.089,43.256,61.471,84.297,96.807,122.621
	c52.299,56.723,115.897,109.803,192.384,119.934c79.783,10.565,158.377-27.442,238.855-27.873
	c57.654-0.309,115.223,19.454,160.528,55.111C1756.063,1237.107,1689.155,1091.326,1565.713,1007.558z"/>
<path style="fill:#F59F22;" d="M1400.207,812.829l16.246-166.735c0.489-5.03,7.834-5.013,8.3,0.022l10.974,118.869
	c9.27-13.2,18.397-26.734,27.302-40.604c10.593-16.489,20.844-33.446,30.754-50.691l2.526-143.27
	c0.09-5.111,7.494-5.681,8.368-0.646l16.282,93.994c38.874-75.888,69.232-155.839,84.327-231.514
	c1.349-6.755,7.92-11.137,14.675-9.788c6.755,1.35,11.136,7.92,9.787,14.675c-7.006,35.033-17.118,70.712-29.645,106.365
	l57.811-43.389c4.251-3.191,9.445,2.519,5.871,6.45l-86.021,94.632c-13.667,32.266-29.091,64.211-45.83,95.322
	c-9.911,18.411-20.301,36.504-31.037,54.221l79.086-30.555c4.407-1.703,7.474,4.436,3.466,6.938l-112.028,69.904
	c-11.535,17.244-23.359,33.971-35.393,50.068c-12.969,23.497-28.891,45.052-46.38,65.027c24.523-11.39,51.656-18.477,78.242-23.763
	c48.383-9.617,98.711-15.367,142.205-38.641c64.175-34.339,104.516-103.537,118.099-175.043
	c27.825-146.562-28.177-296.871-100.882-422.547c-6.735,57.26-33.384,111.985-74.304,152.597
	c-57.125,56.689-139.532,85.515-188.377,149.478c-46.826,61.32-54.136,143.834-50.889,220.92
	c2.196,52.081,8.396,103.99,18.493,155.13c8.679-8.739,17.391-17.932,26.093-27.577
	C1372.366,847.127,1386.375,830.427,1400.207,812.829z"/>
<path style="fill:#F8FAEC;" d="M629.376,919.755c1.437,22.904,1.274,45.922,4.002,68.738c1.925,16.117,5.362,52.562,21.454,61.452
	c16.548,9.142,28.239-10.921,31.096-24.331c7.218-33.864,0.329-69.179-10.514-101.483c-10.516-31.33-22.28-69.756-50.317-90.928
	c-9.201-6.95-20.019-3.664-15.676,8.911C617.948,866.798,627.729,893.495,629.376,919.755z"/>
<path style="fill:#F8FAEC;" d="M1034.644,1347.474c20.599,10.18,42.355,17.701,63.471,26.694
	c24.207,10.309,46.114,28.431,66.543,44.699c10.407,8.29,17.113-0.814,13.63-11.805c-10.614-33.493-42.916-57.396-68.947-77.757
	c-26.84-20.994-57.837-39.264-92.168-43.751c-13.598-1.779-36.41,2.553-33.311,21.201
	C986.878,1324.892,1020.091,1340.286,1034.644,1347.474z"/>
<path style="fill:#F8FAEC;" d="M888.62,726.9c16.105-16.39,30.046-34.709,45.184-51.958c17.357-19.773,41.415-34.926,63.252-49.247
	c11.125-7.299,4.57-16.512-6.957-16.636c-35.133-0.383-67.932,22.838-95.406,41.206c-28.326,18.938-55.366,42.677-70.353,73.89
	c-5.934,12.361-8.948,35.384,9.737,38.263C852.247,765.222,877.244,738.479,888.62,726.9z"/>
<path style="fill:#F8FAEC;" d="M1484.144,1061.611c20.787,9.795,42.677,16.913,63.956,25.512
	c24.394,9.859,46.636,27.571,67.359,43.462c10.56,8.095,17.096-1.133,13.41-12.058c-11.232-33.289-43.973-56.59-70.375-76.465
	c-27.225-20.494-58.558-38.185-92.965-42.036c-13.627-1.525-36.356,3.225-32.911,21.815
	C1435.969,1039.918,1469.462,1054.693,1484.144,1061.611z"/>
<path style="fill:#F8FAEC;" d="M1632.324,654.281c-5.466,15.284-18.648,49.435-8.212,64.57c10.733,15.564,30.144,2.823,38.684-7.905
	c21.567-27.086,31.157-61.766,35.864-95.516c4.567-32.731,11.179-72.367-4.468-103.827c-5.133-10.321-16.283-12.21-18.005,0.984
	c-3.379,25.895-6.538,54.151-16.777,78.387C1650.478,612.119,1640.063,632.647,1632.324,654.281z"/>
</svg>
