<?xml version="1.0" encoding="utf-8"?>
<!-- Generator: Adobe Illustrator 27.5.0, SVG Export Plug-In . SVG Version: 6.00 Build 0)  -->
<svg version="1.1" id="Capa_1" xmlns="http://www.w3.org/2000/svg" xmlns:xlink="http://www.w3.org/1999/xlink" x="0px" y="0px"
	 viewBox="0 0 2122 2122" style="enable-background:new 0 0 2122 2122;" xml:space="preserve">
<g>
	<path style="fill:#DA665A;" d="M1282.11,706.337c9.325-44.965,15.17-90.899,25.769-135.537c0.463-1.939,3.527-1.506,3.461,0.468
		c-1.683,50.013-12.261,100.711-22.081,149.666c-10.148,50.592-20.913,100.891-34.872,150.577
		c-5.259,18.728-10.828,37.354-16.589,55.922c29.61-11.669,73.995-40.565,78.489-44.341c29.681-24.819,53.773-52.458,73.922-85.895
		c43.208-71.717,63.64-156.419,63.944-239.805c0.258-68.385-11.954-135.849-32.007-201.344
		c-26.77,70.285-76.366,130.991-135.683,177.53c-32.875,25.832-70.495,47.951-111.237,58.592
		c-7.374,72.818,4.745,147.444,16.909,220.219c6.411,38.348,12.821,76.697,19.233,115.04c0.653,3.873,4.109,5.169,9.337,4.721
		c10.782-32.94,20.775-66.149,29.851-99.654C1261.906,790.6,1273.289,748.86,1282.11,706.337z"/>
	<path style="fill:#CF4A4B;" d="M1095.416,1037.83c-19.566-22.738-37.59-46.826-53.914-71.995
		c-34.558-53.272-65.715-114.509-77.303-177.442c-0.901-4.891,5.566-6.572,7.359-2.027c23.128,58.631,44.692,116.185,78.494,169.817
		c17.598,27.922,37.301,54.49,58.972,79.381c8.828,10.139,18.548,19.61,28.236,29.101c-5.261-34.894-10.523-69.773-15.785-104.667
		c-13.362-88.506-27.64-179.595-73.83-256.263c-33.415-55.494-80.779-99.123-131.008-140.57c-0.4,15.313-1.362,30.602-2.96,45.817
		c-6.034,58.003-20.875,115.157-44.711,168.414c-13.172,29.544-29.917,58.592-50.37,83.976
		c26.702,55.162,63.544,105.603,109.853,145.642c29.54,25.549,61.006,44.331,96.935,58.728
		c7.116,2.855,91.656,25.223,110.015,15.635C1120.941,1067.725,1107.772,1052.188,1095.416,1037.83z"/>
	<path style="fill:#DE6C45;" d="M1332.375,1104.095c64.399-7.6,121.454-30.294,177.983-61.368c1.094-0.6,1.949,0.95,0.962,1.651
		c-51.481,36.58-115.476,60.092-177.368,71.367c-30.785,5.603-61.822,7.44-93.069,5.715c-10.913-0.599-24.461-0.755-37.654-2.334
		c14.115,19.586,86.494,52.322,93.452,54.519c36.938,11.527,73.217,16.862,112.221,15.732
		c82.473-2.392,163.534-30.246,233.135-73.944c-32.404-33.583-56.193-75.074-70.283-119.527
		c-12.047-37.997-16.648-84.283-13.055-131.103c-17.072,3.615-33.91,8.243-50.511,14.182
		c-84.234,30.246-152.872,91.815-219.164,151.98c-27.147,24.643-54.297,49.272-81.464,73.91c13.836,1.637,27.719,2.728,41.656,3.108
		C1276.866,1108.748,1304.912,1107.335,1332.375,1104.095z"/>
	<path style="fill:#3A1E16;" d="M1070.354,1322.77c10.066,5.968,20.853,11.157,32.134,15.693
		c45.613,18.324,99.218,25.954,145.369,30.952c63.372,6.865,131.934,7.079,193.593-10.996c3.966-1.16,3.423-7.898-1.013-7.493
		c-61.651,5.632-121.588,12.424-183.622,6.957c-32.338-2.845-64.426-8.19-95.96-15.888c-14.953-3.654-29.606-8.585-44.256-13.461
		c-14.068-4.677-28.146-9.247-42.47-12.638c36.175-66.704,68.73-135.269,97.637-205.344c8.945,4.755,20.061,7.211,31.464,8.575
		c13.193,1.578,26.741,1.735,37.654,2.334c31.247,1.725,62.285-0.112,93.069-5.715c61.892-11.274,125.888-34.787,177.368-71.367
		c0.987-0.701,0.132-2.251-0.962-1.651c-56.528,31.074-113.583,53.768-177.983,61.368c-27.464,3.24-55.51,4.653-83.159,3.888
		c-13.937-0.38-27.82-1.471-41.656-3.108c-1.343-0.161-2.687-0.292-4.029-0.463c-9.725-1.228-18.631-3.62-27.805-3.391
		c23.157-56.916,43.839-114.84,62.073-173.588c5.761-18.568,11.33-37.194,16.589-55.922c13.959-49.686,24.724-99.985,34.872-150.577
		c9.82-48.955,20.397-99.654,22.081-149.666c0.066-1.973-2.998-2.407-3.461-0.468c-10.599,44.638-16.443,90.572-25.769,135.537
		c-8.821,42.523-20.205,84.263-31.554,126.158c-9.077,33.505-19.069,66.714-29.851,99.654
		c-17.048,52.083-36.107,103.488-56.911,154.255c-0.531,1.296-1.091,2.582-1.627,3.879c-7.859-8.863-16.361-17.252-24.906-25.618
		c-9.688-9.49-19.408-18.962-28.236-29.101c-21.671-24.891-41.374-51.459-58.972-79.381
		c-33.803-53.632-55.367-111.187-78.494-169.817c-1.793-4.546-8.261-2.865-7.359,2.027c11.588,62.933,42.745,124.171,77.303,177.442
		c16.324,25.169,34.349,49.257,53.914,71.995c12.356,14.358,25.525,29.895,39.983,43.547c7.221,6.816,14.777,13.101,22.716,18.568
		c-40.336,96.492-87.905,189.953-142.044,279.449c-6.969-4.589-14.998-6.411-23.384-9.573c-2.991-1.13-5.966-2.295-8.938-3.474
		c-11.858-4.682-23.552-9.735-34.994-15.391c-26.115-12.916-51.384-28.18-75.245-44.887
		c-52.971-37.086-91.985-83.922-126.998-137.817c-0.673-1.038-2.188-0.136-1.647,0.96c27.696,56.375,72.791,106.933,121.503,146.114
		c24.329,19.572,50.614,35.898,78.848,49.228c9.959,4.697,22.395,11.444,35.186,16.614c10.173,4.112,20.555,7.191,30.117,7.44
		c-36.131,59.055-75.113,116.365-116.782,171.634c-11.907,15.791-24.029,31.605-36.375,47.333
		c-13.379-6.943-27.517-12.531-41.729-18.017c-13.584-5.248-27.206-10.441-40.212-16.76c-27.732-13.481-54.485-28.93-80.042-46.177
		c-53.717-36.258-97.03-81.384-142.494-126.947c-2.984-2.992-8.46,0.94-5.993,4.623c35.221,52.604,86.807,95.576,138.904,130.767
		c27.766,18.752,56.965,35.42,87.298,49.656c15.211,7.142,31.252,14.801,47.671,20.828c10.316,3.791,20.774,6.855,31.293,8.74
		c-50.061,63.333-103.934,125.096-163.339,178.597c-11.449,10.309,6.453,28.297,16.916,16.916
		c62.239-67.713,124.957-133.564,181.359-206.436c3.786,8.326,10.029,16.507,17.198,24.234
		c11.432,12.326,25.121,23.483,34.682,32.117c22.719,20.516,47.413,38.173,74.251,52.926
		c53.067,29.174,113.985,51.342,174.55,56.429c1.065,0.092,1.306-1.657,0.253-1.871c-60.558-12.41-116.762-30.68-169.116-64.293
		c-25.703-16.502-50.336-35.152-73.018-55.62c-10.1-9.111-19.715-18.714-28.987-28.662c-0.475-0.512-0.977-0.994-1.449-1.506
		c-7.062-7.644-13.138-16.76-21.357-22.928c52.875-69.16,101.435-141.588,145.423-216.711
		C1050.018,1359.393,1060.305,1341.142,1070.354,1322.77z"/>
	<path style="fill:#AE4330;" d="M1422.147,356.048c-15.544-50.885-35.834-100.551-58.66-148.526
		c-56.38,115.371-151.79,213.198-180.675,338.314c-3.547,15.337-5.988,30.811-7.586,46.334
		c40.743-10.641,78.363-32.76,111.237-58.592C1345.781,487.039,1395.377,426.333,1422.147,356.048z"/>
	<path style="fill:#DA665A;" d="M913.677,608.982c1.598-15.215,2.56-30.504,2.96-45.817
		c-49.313-40.716-101.374-79.347-145.664-125.018c-15.591,120.487-15.827,245.345,22.309,360.716
		c7.045,21.296,15.498,42.222,25.313,62.509c20.453-25.384,37.199-54.431,50.37-83.976
		C892.802,724.139,907.643,666.985,913.677,608.982z"/>
	<path style="fill:#CF4A4B;" d="M1256.814,1357.883c62.034,5.466,121.971-1.325,183.622-6.957c4.436-0.405,4.98,6.334,1.013,7.493
		c-61.659,18.076-130.221,17.861-193.593,10.996c-46.151-4.999-99.756-12.628-145.369-30.952
		c1.026,21.466,57.861,85.423,63.552,90.431c29.045,25.583,60,45.203,96.122,60.053c56.616,23.284,118.251,33.437,179.525,32.399
		c13.438-29.7,31.817-57.739,52.248-82.816c36.797-45.286,81.126-84.297,130.178-115.834c12.862-8.282,26.073-16.034,39.562-23.293
		c-59.639-26.153-119.939-48.76-184.533-53.574c-89.262-6.665-177.006,21.652-262.031,49.622
		c-33.51,11.035-67.006,22.056-100.511,33.082c14.651,4.877,29.303,9.807,44.256,13.461
		C1192.388,1349.693,1224.476,1355.038,1256.814,1357.883z"/>
	<path style="fill:#DA665A;" d="M1493.934,1438.531c-20.431,25.077-38.811,53.116-52.248,82.816
		c22.534-0.385,45.023-2.27,67.211-5.583c120.173-17.969,231.517-74.465,332.039-142.699c-60.734-18.943-118.685-48-177.262-73.662
		c-13.488,7.26-26.699,15.011-39.562,23.293C1575.06,1354.234,1530.731,1393.245,1493.934,1438.531z"/>
	<path style="fill:#F5A480;" d="M1571.754,995.905c14.09,44.453,37.878,85.944,70.283,119.527c1.057-0.633,2.114-1.291,3.172-1.973
		c32.1-20.453,61.876-44.029,89.61-69.934c60.747-56.731,111.658-124.643,155.641-195.513
		c-92.263,10.826-187.815-0.497-279.373,8.829c-17.635,1.783-35.128,4.346-52.387,7.961
		C1555.106,911.623,1559.708,957.908,1571.754,995.905z"/>
	<path style="fill:#DE6C45;" d="M866.369,1315.325c-48.711-39.181-93.807-89.739-121.503-146.114
		c-0.541-1.096,0.974-1.998,1.647-0.96c35.013,53.895,74.027,100.73,126.998,137.817c23.861,16.707,49.131,31.971,75.245,44.887
		c11.442,5.656,23.135,10.709,34.994,15.391c-12.253-34.558-24.502-69.096-36.736-103.649
		c-29.893-84.385-61.188-171.118-121.049-237.651c-11.81-13.096-24.448-25.145-37.771-36.414
		c-19.011,42.943-44.984,81.53-73.588,109.286c-33.462,32.477-74.066,57.759-118.509,71.985
		c40.604,71.454,98.809,134.372,170.312,175.542c33.82,19.464,68.297,31.951,106.289,39.289c7.121,1.354,85.423,6.738,107.705-3.566
		c-12.791-5.17-25.228-11.917-35.186-16.614C916.983,1351.223,890.698,1334.896,866.369,1315.325z"/>
	<path style="fill:#F5A480;" d="M788.194,988.631c-13.489-11.357-27.684-21.9-42.373-31.819
		c-76.224-51.576-165.739-86.86-241.873-140.088c5.174,83.249,17.852,167.171,44.485,245.909
		c12.161,35.947,27.221,70.816,45.805,104.029c0.609,1.101,1.228,2.183,1.858,3.24c44.443-14.227,85.047-39.508,118.509-71.985
		C743.21,1070.161,769.183,1031.574,788.194,988.631z"/>
	<path style="fill:#F5A480;" d="M1362.619,780.471c16.19-4.234,23.922-23.971,31.223-37.403
		c24.112-44.36,38.154-95.445,32.29-146.124c-1.167-10.085-3.209-20.36-8.689-28.906c-5.481-8.546-15.052-15.074-25.184-14.451
		c-11.966,0.74-21.484,11.148-25.386,22.485c-3.902,11.333-3.474,23.625-3.776,35.61c-0.892,35.61-8.689,71.03-22.831,103.723
		c-4.453,10.299-9.593,20.541-11.06,31.663C1326.517,767.458,1340.624,786.22,1362.619,780.471z"/>
	<path style="fill:#F5A480;" d="M812.113,1144.875c16.75,23.201,30.711,48.414,41.486,74.923
		c3.379,8.312,6.504,16.867,11.788,24.122c16.31,22.387,49.506,13.603,44.032-15.011c-6.02-31.459-18.068-62.397-32.804-90.733
		c-11.513-22.139-26.248-44.088-48.482-55.415c-6.928-3.532-14.711-5.954-22.429-5.008c-7.718,0.95-15.271,5.837-17.713,13.218
		c-1.885,5.715-0.56,12,1.554,17.637C794.569,1121.981,803.75,1133.289,812.113,1144.875z"/>
	<path style="fill:#DE6C45;" d="M945.796,1647.286c22.682,20.467,47.316,39.118,73.018,55.62
		c52.353,33.613,108.558,51.883,169.116,64.293c1.052,0.214,0.811,1.963-0.253,1.871c-60.565-5.087-121.483-27.255-174.55-56.429
		c-26.838-14.753-51.532-32.409-74.251-52.926c-9.562-8.634-23.25-19.791-34.682-32.117c-1.023,24.916,32.188,95.026,36.022,101.121
		c20.702,32.697,44.914,60.234,75.381,84.614c64.426,51.542,144.251,82.762,225.596,94.48
		c-2.977-46.568,5.737-93.598,23.759-136.604c15.401-36.765,41.842-75.031,74.882-108.405
		c-15.357-8.292-31.189-15.658-47.691-21.875c-83.79-31.445-175.966-28.916-265.437-25.944
		c-36.631,1.223-73.252,2.431-109.895,3.639C926.081,1628.572,935.697,1638.175,945.796,1647.286z"/>
	<path style="fill:#F5A480;" d="M1241.192,1907.811c1.215,0.205,2.448,0.385,3.693,0.551c37.71,5.179,75.669,6.47,113.571,4.667
		c83.03-3.946,165.787-22.777,245.181-48.351c-77.347-51.449-142.874-121.91-218.711-174.046
		c-14.601-10.051-29.595-19.42-45.093-27.83c-33.04,33.374-59.481,71.64-74.882,108.405
		C1246.929,1814.214,1238.215,1861.244,1241.192,1907.811z"/>
	<path style="fill:#F5A480;" d="M1073.984,1684.124c8.682,2.271,17.786,2.061,26.758,2.173c28.614,0.351,57.184,4.146,84.899,11.269
		c13.837,3.557,27.72,7.976,42.005,7.771c6.017-0.087,12.351-1.145,16.982-4.989c5.983-4.965,7.778-13.788,5.842-21.315
		c-1.937-7.532-7.033-13.895-12.848-19.055c-18.663-16.565-44.475-22.27-69.289-24.906c-31.759-3.377-64.96-3.304-96.446,2.582
		C1043.246,1643.003,1047.185,1677.113,1073.984,1684.124z"/>
	<path style="fill:#F5A480;" d="M989.175,745.659c21.447,27.873,34.334,61.296,45.223,94.738
		c3.001,9.223,6.295,19.104,14.046,24.935c6.887,5.179,20.404,4.984,25.372-3.001c5.135-8.253-0.324-25.52-1.818-34.329
		c-4.719-27.839-13.294-55.031-25.455-80.516c-6.268-13.14-13.537-25.914-22.959-37.013c-6.034-7.108-13.264-13.691-22.195-16.38
		c-8.928-2.685-19.823-0.541-25.226,7.06c-4.828,6.792-4.256,16.229-0.964,23.883C978.488,732.69,984.096,739.058,989.175,745.659z"
		/>
	<path style="fill:#F5A480;" d="M1395.425,1132.368c-6.996,1.004-14.099,2.538-20.075,6.315
		c-10.409,6.568-13.988,19.279-6.475,29.588c5.895,8.088,15.391,7.888,24.631,8.371c32.424,1.69,65.14-2.87,95.822-13.52
		c20.336-7.059,40.626-17.481,52.804-35.235c2.767-4.029,4.987-9.72,1.89-13.505c-1.964-2.397-5.354-3.001-8.45-3.186
		c-21.058-1.242-40.814,9.223-61.338,14.09C1448.536,1131.374,1421.567,1128.626,1395.425,1132.368z"/>
	<path style="fill:#F5A480;" d="M1315.046,1446.862c-26.66-9.856-51.88-23.595-74.616-40.653
		c-6.709-5.033-13.257-10.387-20.711-14.231c-12.728-6.558-29.415-7.756-38.818,4.896c-8.146,10.962-3.654,20.117,5.941,27.737
		c23.698,18.821,52.967,39.084,82.349,47.303c12.658,3.537,26.019,4.546,39.065,2.943c5.23-0.639,10.621-1.793,14.779-5.028
		c4.158-3.235,6.701-9.067,4.694-13.939C1325.691,1450.94,1320.067,1448.713,1315.046,1446.862z"/>
	<path style="fill:#CF4A4B;" d="M685.797,1535.062c-52.097-35.192-103.683-78.163-138.904-130.767
		c-2.468-3.683,3.009-7.615,5.993-4.623c45.464,45.564,88.777,90.689,142.494,126.947c25.557,17.247,52.31,32.697,80.042,46.177
		c13.006,6.319,26.628,11.513,40.212,16.76c-18.656-29.905-37.303-59.791-55.956-89.695
		c-47.388-75.937-96.643-153.881-169.466-205.924c-52.692-37.671-113.484-58.923-176.036-77.033
		c5.71,14.212,10.894,28.624,15.466,43.225c17.479,55.635,26.538,113.988,25.798,172.331c-0.37,32.346-4.21,65.652-12.911,97.067
		c46.399,40.034,100.234,71.712,158.628,90.085c37.254,11.727,73.593,16.487,112.285,15.439
		c7.693-0.204,94.82-13.325,107.325-29.505c-16.419-6.027-32.461-13.686-47.671-20.828
		C742.761,1570.482,713.563,1553.814,685.797,1535.062z"/>
	<path style="fill:#DA665A;" d="M429.641,1260.129c-4.573-14.601-9.757-29.013-15.466-43.225
		c-61.423-17.808-124.538-32.604-183.316-56.95c33.503,116.784,82.838,231.479,163.627,322.241
		c14.918,16.755,30.982,32.604,48.041,47.333c8.701-31.416,12.541-64.721,12.911-97.067
		C456.179,1374.117,447.12,1315.764,429.641,1260.129z"/>
	<path style="fill:#F5A480;" d="M695.855,1572.323c-8.185-1.827-16.643-1.905-25.018-2.334c-28.387-1.461-56.558-7.06-83.342-16.57
		c-5.042-1.788-10.789-3.683-15.522-1.188c-4.66,2.46-6.446,8.57-5.323,13.72c1.121,5.145,4.526,9.481,8.132,13.325
		c8.994,9.583,19.9,17.364,31.888,22.752c27.829,12.506,63.284,15.693,93.537,16.414c12.251,0.292,21.567-3.864,22.329-17.501
		C723.414,1585.201,709.833,1575.437,695.855,1572.323z"/>
</g>
</svg>
