<?xml version="1.0" encoding="iso-8859-1"?>
<!-- Uploaded to: SVG Repo, www.svgrepo.com, Generator: SVG Repo Mixer Tools -->
<svg height="800px" width="800px" version="1.1" id="Layer_1" xmlns="http://www.w3.org/2000/svg" xmlns:xlink="http://www.w3.org/1999/xlink" 
	 viewBox="0 0 512.001 512.001" xml:space="preserve">
<g>
	<circle style="fill:#FF728B;" cx="368.959" cy="413.254" r="91.134"/>
	<circle style="fill:#FF728B;" cx="143.052" cy="413.254" r="91.134"/>
</g>
<g>
	<path style="fill:#FF3F62;" d="M159.5,475.175c-50.334,0-91.138-40.803-91.138-91.138c0-10.239,1.689-20.083,4.802-29.271
		c-13.261,15.829-21.249,36.225-21.249,58.491c0,50.334,40.804,91.138,91.138,91.138c40.096,0,74.142-25.892,86.336-61.867
		C212.67,462.482,187.569,475.175,159.5,475.175z"/>
	<path style="fill:#FF3F62;" d="M385.401,475.175c-50.334,0-91.138-40.803-91.138-91.138c0-10.239,1.689-20.083,4.803-29.271
		c-13.261,15.829-21.249,36.225-21.249,58.491c0,50.334,40.804,91.138,91.138,91.138c40.096,0,74.142-25.892,86.336-61.867
		C438.572,462.482,413.47,475.175,385.401,475.175z"/>
</g>
<path style="fill:#6DC82A;" d="M277.045,12.897c-5.213-6.055-14.199-7.101-20.662-2.402c-23.186,16.855-35.929,36.637-37.875,58.798
	c-2.95,33.596,21.026,58.887,22.048,59.948c2.977,3.088,6.995,4.698,11.058,4.698c2.724,0,5.468-0.724,7.931-2.211
	c22.427-13.545,35.485-30.969,38.809-51.785C303.986,44.676,278.148,14.179,277.045,12.897z"/>
<path style="fill:#5EAC24;" d="M293.183,40.411c-9.772,2.352-19.013,6.138-27.384,11.277
	c-18.688,11.471-32.601,28.935-41.484,51.988c6.387,15.167,15.616,24.914,16.241,25.564c2.977,3.088,6.995,4.698,11.058,4.698
	c2.724,0,5.469-0.724,7.931-2.211c22.428-13.545,35.485-30.969,38.81-51.785C300.682,65.374,297.635,51.629,293.183,40.411z"/>
<path style="fill:#91DC5A;" d="M358.25,77.177c-1.926-0.941-19.438-9.191-40.822-9.191c-19.184,0-53.49,7.2-67.718,55.419
	c-1.991,6.752,0.953,13.983,7.094,17.423c1.811,1.015,18.304,9.91,39.428,9.911c0.001,0,0.003,0,0.004,0
	c14.044,0,26.821-3.897,37.974-11.581c13.346-9.195,23.933-23.645,31.467-42.949C368.533,88.898,365.302,80.622,358.25,77.177z"/>
<path style="fill:#6DC82A;" d="M358.25,77.177c-1.926-0.941-19.438-9.191-40.822-9.191c-19.183,0-53.49,7.2-67.718,55.419
	c-1.991,6.752,0.953,13.983,7.094,17.423c0.895,0.501,5.377,2.925,12.225,5.25c22.797-53.968,66.436-54.866,95.901-48.028
	c0.249-0.613,0.506-1.219,0.749-1.842C368.533,88.898,365.302,80.622,358.25,77.177z"/>
<g>
	<path style="fill:#FF3F62;" d="M431.511,385.783c-1.694-3.843-6.183-5.586-10.026-3.893c-3.844,1.693-5.586,6.183-3.893,10.026
		c2.971,6.74,4.477,13.921,4.477,21.341c0,4.2,3.404,7.605,7.605,7.605c4.201,0,7.605-3.405,7.605-7.605
		C437.279,403.711,435.338,394.467,431.511,385.783z"/>
	<path style="fill:#FF3F62;" d="M191.567,457.329c2.306,0,4.585-1.045,6.08-3.029c8.983-11.922,13.731-26.114,13.731-41.044
		c0-4.2-3.405-7.605-7.605-7.605s-7.605,3.405-7.605,7.605c0,11.601-3.689,22.628-10.669,31.892
		c-2.527,3.354-1.857,8.123,1.498,10.649C188.367,456.831,189.973,457.329,191.567,457.329z"/>
</g>
<path d="M88.734,476.72c-5.328-4.565-10.073-9.789-14.1-15.526c-2.412-3.438-7.156-4.267-10.593-1.855
	c-3.437,2.413-4.268,7.155-1.855,10.593c4.756,6.776,10.358,12.945,16.651,18.336c1.435,1.229,3.193,1.83,4.944,1.83
	c2.143,0,4.274-0.901,5.778-2.657C92.294,484.253,91.923,479.452,88.734,476.72z"/>
<path d="M368.955,314.514c-10.516,0-20.65,1.659-30.163,4.718c-23.172-37.629-39.596-77.941-50.426-109.8
	c-6.928-20.379-12.211-39.101-16.093-54.431c6.808,1.868,15.009,3.343,23.965,3.344c4.2,0,7.602-3.405,7.602-7.605
	c0.001-4.2-3.406-7.605-7.607-7.605c-19.523-0.001-35.061-8.576-35.712-8.941c-3.064-1.716-4.51-5.267-3.516-8.636
	c12.186-41.298,39.585-49.967,60.423-49.967c20.025,0,36.78,8.075,37.486,8.42c3.469,1.693,5.086,5.837,3.683,9.434
	c-6.972,17.862-16.627,31.135-28.698,39.452c-2.01,1.385-4.108,2.646-6.232,3.751c-3.727,1.937-5.179,6.528-3.243,10.254
	c1.936,3.727,6.528,5.179,10.253,3.243c2.683-1.393,5.323-2.982,7.85-4.723c14.621-10.074,26.14-25.701,34.237-46.446
	c4.261-10.913-0.649-23.489-11.175-28.629c-2.088-1.02-21.056-9.964-44.161-9.964c-3.265,0-7.055,0.2-11.17,0.761
	c-3.332-29.494-22.561-52.176-23.451-53.208c-7.735-8.986-21.31-10.562-30.896-3.591c-25.046,18.205-38.832,39.834-40.98,64.283
	c-2.728,31.069,15.362,55.598,21.893,63.349c-43.982,56.354-67.708,113.473-80.111,153.358c-3.205,10.309-8.077,29.283-8.077,29.283
	c-56.95-0.169-100.328,44.193-100.328,98.639c0,9.138,1.249,18.191,3.713,26.909c1.143,4.043,5.346,6.395,9.386,5.25
	c4.042-1.142,6.392-5.345,5.25-9.386c-2.084-7.372-3.14-15.035-3.14-22.773c0-45.508,36.586-82.607,81.886-83.491
	c-4.158,20.785-5.608,35.88-6.031,41.282c-7.988-1.488-15.369-5.287-21.305-11.069c-3.008-2.93-7.823-2.868-10.754,0.14
	c-2.931,3.008-2.868,7.823,0.14,10.754c10.656,10.381,24.717,16.097,39.597,16.097c15.158,0,29.408-5.902,40.126-16.621
	c2.97-2.97,2.97-7.784,0-10.754c-2.969-2.971-7.784-2.97-10.755,0c-6.026,6.026-13.579,9.962-21.785,11.469
	c0.52-5.982,2.076-20.606,6.08-40.202c39.579,6.544,69.866,40.992,69.866,82.396c0,46.061-37.473,83.533-83.533,83.533
	c-11.296,0-22.25-2.213-32.556-6.579c-3.867-1.64-8.331,0.168-9.969,4.036c-1.639,3.867,0.168,8.331,4.036,9.969
	c12.193,5.166,25.143,7.785,38.488,7.785c54.447,0,98.742-44.296,98.742-98.742c0-48.656-35.376-89.201-81.758-97.276
	c1.981-8.199,4.353-16.968,7.201-26.129c12.063-38.792,35.172-94.416,78.096-149.196c0.091,0.026,3.757,5.14,9.639,7.801
	c4.051,17.054,10.177,39.906,18.9,65.6c10.921,32.169,27.419,72.736,50.683,111.018c-32.208,16.282-54.346,49.694-54.346,88.181
	c0,54.447,44.296,98.742,98.743,98.742c54.446,0,98.742-44.296,98.742-98.742S423.401,314.514,368.955,314.514z M226.084,69.958
	c1.745-19.871,13.443-37.808,34.77-53.311c3.238-2.352,7.819-1.819,10.426,1.212c0.773,0.897,17.968,21.171,20.055,46.837
	c-4.481,1.564-9.072,3.656-13.602,6.438c-16.363,10.042-28.116,26.538-34.968,49.012C236.581,112.333,224.032,93.343,226.084,69.958
	z M368.955,496.79c-46.061,0-83.534-37.473-83.534-83.533c0-33.087,19.337-61.741,47.304-75.259
	c7.266,11.017,15.127,21.731,23.61,31.879c-6.169-1.921-11.844-5.274-16.593-9.899c-3.008-2.931-7.824-2.868-10.753,0.141
	c-2.931,3.008-2.867,7.823,0.141,10.753c10.657,10.381,24.718,16.097,39.597,16.097c15.158,0,29.408-5.902,40.126-16.621
	c2.97-2.97,2.97-7.785,0-10.754c-2.971-2.97-7.785-2.97-10.755,0c-5.748,5.748-12.886,9.594-20.654,11.245
	c-10.981-11.859-20.982-24.795-30.06-38.277c6.886-1.842,14.113-2.84,21.573-2.84c46.061,0,83.533,37.473,83.533,83.533
	S415.016,496.79,368.955,496.79z"/>
</svg>